<?xml version="1.0" encoding="utf-8"?>
<!-- Generator: Adobe Illustrator 16.0.0, SVG Export Plug-In . SVG Version: 6.00 Build 0)  -->
<!DOCTYPE svg PUBLIC "-//W3C//DTD SVG 1.1//EN" "http://www.w3.org/Graphics/SVG/1.1/DTD/svg11.dtd">
<svg version="1.1" id="Слой_1" xmlns="http://www.w3.org/2000/svg" xmlns:xlink="http://www.w3.org/1999/xlink" x="0px" y="0px"
	 width="512px" height="512px" viewBox="0 0 512 512" enable-background="new 0 0 512 512" xml:space="preserve">
<g>
	<g>
		<path fill="#FFFFFF" d="M383.318,51.095C346.146,15.82,297.39-2.122,246.037,0.576c-46.3,2.43-89.875,22.469-122.694,56.424
			C90.536,90.94,71.958,135.172,71.036,181.545c-0.705,35.324,8.578,69.852,26.839,99.834c17.727,29.11,43.089,52.756,73.342,68.382
			c14.485,7.48,23.483,22.527,23.483,39.271v46.198c0,22.025,10.632,39.443,26.854,46.518c2.368,16.896,16.909,29.941,34.445,29.941
			c17.51,0,32.034-13.004,34.435-29.864c15.759-6.583,26.864-22.152,26.864-40.268v-52.485c0-16.752,9.051-31.844,23.623-39.386
			c61.73-31.947,100.077-94.932,100.077-164.373C440.998,134.057,420.515,86.39,383.318,51.095L383.318,51.095z M299.882,386.558
			v8.683h-87.768v-8.723c0-3.29-0.269-6.529-0.772-9.698h89.323C300.151,380.001,299.882,383.254,299.882,386.558z M299.882,429.942
			c-0.176-0.012-0.358-0.025-0.538-0.025h-86.689c-0.182,0-0.361,0.014-0.541,0.025v-18.447h87.768V429.942z M255.999,490.597
			c-6.931,0-12.94-3.971-15.905-9.749h31.809C268.943,486.626,262.926,490.597,255.999,490.597z M273.335,464.596h-34.673
			c-11.592,0-20.397-7.019-24.314-18.42h84.26C295.17,456.847,285.142,464.596,273.335,464.596z M331.843,333.481
			c-11.655,6.03-20.702,15.607-26.145,27.086h-99.368c-5.423-11.47-14.435-21.024-26.054-27.023
			c-27.028-13.956-49.689-35.088-65.529-61.096c-16.305-26.777-24.592-57.611-23.963-89.171
			c0.823-41.378,17.428-80.876,46.75-111.214c29.336-30.348,68.236-48.255,109.54-50.423c3.017-0.157,6.014-0.238,9.01-0.238
			c42.553,0,82.617,15.926,113.634,45.36c33.229,31.528,51.526,74.104,51.526,119.89
			C421.246,248.678,386.991,304.941,331.843,333.481L331.843,333.481z"/>
		<path fill="#FFFFFF" d="M360.027,161.188h-3.78c-2.44-9.7-6.233-18.889-11.337-27.438l2.653-2.65
			c3.164-3.167,4.906-7.384,4.906-11.876c0-4.493-1.742-8.71-4.906-11.876L335.3,95.089c-6.545-6.547-17.2-6.547-23.753,0
			l-2.645,2.649c-8.553-5.1-17.74-8.896-27.439-11.336v-3.774c0-9.264-7.537-16.795-16.791-16.795h-17.341
			c-9.262,0-16.794,7.532-16.794,16.795v3.774c-9.702,2.441-18.888,6.236-27.439,11.336l-2.649-2.649
			c-6.548-6.547-17.204-6.547-23.753,0l-12.257,12.259c-3.167,3.167-4.909,7.383-4.909,11.876c0,4.493,1.743,8.709,4.909,11.876
			l2.65,2.65c-5.103,8.549-8.895,17.738-11.337,27.438h-3.773c-9.262,0-16.796,7.532-16.796,16.794v17.337
			c0,9.262,7.534,16.798,16.796,16.798h3.773c2.443,9.698,6.236,18.884,11.337,27.436l-2.65,2.649
			c-3.167,3.165-4.909,7.381-4.909,11.876c0,4.493,1.743,8.711,4.909,11.875l12.257,12.257c3.167,3.164,7.385,4.914,11.876,4.914
			c4.496,0,8.712-1.75,11.877-4.914l2.649-2.646c8.553,5.097,17.738,8.896,27.439,11.337v3.771c0,9.262,7.532,16.799,16.794,16.799
			h17.341c9.254,0,16.791-7.537,16.791-16.799v-3.771c9.701-2.44,18.888-6.241,27.439-11.337l2.645,2.646
			c3.165,3.164,7.385,4.914,11.88,4.914c4.491,0,8.708-1.75,11.873-4.914l12.263-12.257c3.165-3.164,4.907-7.38,4.907-11.875
			s-1.742-8.712-4.907-11.876l-2.653-2.649c5.104-8.552,8.896-17.739,11.337-27.436h3.779c9.258,0,16.79-7.536,16.79-16.798v-17.337
			C376.817,168.72,369.283,161.188,360.027,161.188L360.027,161.188z M360.564,195.32c0,0.28-0.262,0.542-0.537,0.542h-10.321
			c-3.922,0-7.287,2.799-7.996,6.658c-2.231,12.155-6.897,23.439-13.863,33.542c-2.22,3.228-1.825,7.587,0.949,10.359l7.271,7.274
			c0.101,0.097,0.151,0.229,0.151,0.384c0,0.155-0.051,0.283-0.151,0.384l-12.255,12.258c-0.201,0.194-0.574,0.194-0.769,0
			l-7.278-7.277c-2.771-2.771-7.122-3.169-10.353-0.942c-10.104,6.959-21.39,11.624-33.548,13.863
			c-3.855,0.709-6.655,4.067-6.655,7.989v10.32c0,0.276-0.262,0.545-0.539,0.545h-17.34c-0.28,0-0.542-0.269-0.542-0.545v-10.32
			c0-3.922-2.799-7.279-6.655-7.989c-12.159-2.239-23.443-6.904-33.545-13.863c-1.397-0.962-3.008-1.436-4.609-1.436
			c-2.096,0-4.179,0.811-5.751,2.378l-7.274,7.277c-0.196,0.194-0.569,0.194-0.767,0l-12.257-12.258
			c-0.1-0.101-0.149-0.229-0.149-0.384c0-0.156,0.049-0.287,0.149-0.384l7.274-7.274c2.772-2.771,3.17-7.131,0.943-10.359
			c-6.96-10.103-11.625-21.387-13.862-33.542c-0.709-3.859-4.071-6.658-7.991-6.658h-10.319c-0.28,0-0.542-0.262-0.542-0.542
			v-17.337c0-0.277,0.262-0.542,0.542-0.542h10.319c3.92,0,7.282-2.799,7.991-6.655c2.237-12.16,6.902-23.444,13.862-33.545
			c2.228-3.229,1.829-7.584-0.943-10.36l-7.274-7.273c-0.1-0.097-0.149-0.226-0.149-0.383c0-0.157,0.049-0.286,0.149-0.382
			l12.257-12.259c0.197-0.197,0.569-0.199,0.767,0l7.274,7.274c2.774,2.771,7.131,3.17,10.36,0.944
			c10.101-6.96,21.385-11.626,33.545-13.861c3.856-0.71,6.655-4.071,6.655-7.993V82.628c0-0.279,0.262-0.542,0.542-0.542h17.34
			c0.277,0,0.539,0.263,0.539,0.542v10.319c0,3.921,2.8,7.283,6.655,7.993c12.158,2.235,23.443,6.901,33.548,13.861
			c3.23,2.226,7.581,1.827,10.353-0.944l7.278-7.274c0.194-0.197,0.567-0.199,0.769,0l12.255,12.26
			c0.101,0.097,0.151,0.225,0.151,0.382c0,0.157-0.051,0.286-0.151,0.383l-7.271,7.273c-2.774,2.775-3.169,7.131-0.949,10.36
			c6.966,10.101,11.632,21.386,13.863,33.545c0.709,3.855,4.074,6.655,7.996,6.655h10.321c0.275,0,0.537,0.265,0.537,0.542V195.32
			L360.564,195.32z"/>
		<path fill="#FFFFFF" d="M255.999,117.842c-37.941,0-68.809,30.869-68.809,68.809c0,37.941,30.867,68.808,68.809,68.808
			c37.941,0,68.809-30.867,68.809-68.808C324.808,148.711,293.939,117.842,255.999,117.842z M255.999,239.207
			c-28.979,0-52.555-23.576-52.555-52.556c0-28.977,23.576-52.553,52.555-52.553c28.976,0,52.555,23.576,52.555,52.553
			C308.554,215.631,284.975,239.207,255.999,239.207z"/>
		<path fill="#FFFFFF" d="M255.999,152.52c-18.821,0-34.131,15.309-34.131,34.131c0,18.821,15.31,34.135,34.131,34.135
			c18.821,0,34.135-15.313,34.135-34.135C290.134,167.829,274.819,152.52,255.999,152.52z M255.999,204.53
			c-9.857,0-17.879-8.019-17.879-17.879c0-9.857,8.021-17.878,17.879-17.878c9.857,0,17.882,8.021,17.882,17.878
			C273.881,196.512,265.855,204.53,255.999,204.53z"/>
	</g>
</g>
</svg>
