<?xml version="1.0" encoding="utf-8"?>
<!-- Generator: Adobe Illustrator 16.0.0, SVG Export Plug-In . SVG Version: 6.00 Build 0)  -->
<!DOCTYPE svg PUBLIC "-//W3C//DTD SVG 1.1//EN" "http://www.w3.org/Graphics/SVG/1.1/DTD/svg11.dtd">
<svg version="1.1" id="Layer_1" xmlns="http://www.w3.org/2000/svg" xmlns:xlink="http://www.w3.org/1999/xlink" x="0px" y="0px"
	 width="512px" height="512px" viewBox="0 0 512 512" enable-background="new 0 0 512 512" xml:space="preserve">
<g transform="translate(1 1)">
	<g>
		<g>
			<path fill="#FFFFFF" d="M58.733,24.6C39.96,24.6,24.6,39.96,24.6,58.733s15.36,34.133,34.133,34.133s34.133-15.36,34.133-34.133
				S77.507,24.6,58.733,24.6z M58.733,75.8c-9.387,0-17.067-7.68-17.067-17.067c0-9.387,7.68-17.067,17.067-17.067
				c9.387,0,17.067,7.681,17.067,17.067C75.8,68.119,68.12,75.8,58.733,75.8z"/>
			<path fill="#FFFFFF" d="M135.533,24.6c-18.773,0-34.133,15.36-34.133,34.133s15.36,34.133,34.133,34.133
				c18.773,0,34.133-15.36,34.133-34.133S154.307,24.6,135.533,24.6z M135.533,75.8c-9.387,0-17.067-7.68-17.067-17.067
				c0-9.387,7.68-17.067,17.067-17.067c9.387,0,17.067,7.68,17.067,17.067C152.6,68.12,144.92,75.8,135.533,75.8z"/>
			<path fill="#FFFFFF" d="M212.333,24.6c-18.773,0-34.133,15.36-34.133,34.133s15.36,34.133,34.133,34.133
				s34.133-15.36,34.133-34.133S231.107,24.6,212.333,24.6z M212.333,75.8c-9.387,0-17.067-7.68-17.067-17.067
				c0-9.387,7.68-17.067,17.067-17.067s17.067,7.68,17.067,17.067C229.4,68.12,221.72,75.8,212.333,75.8z"/>
			<path fill="#FFFFFF" d="M487.107-1H23.747C10.093-1-1,10.093-1,23.747V101.4v17.067V255v100.693
				c0,5.279,1.412,10.156,3.888,14.282c0.45,0.75,0.936,1.477,1.454,2.175c1.556,2.096,3.41,3.949,5.506,5.506
				c1.397,1.037,2.902,1.941,4.498,2.697c0.399,0.189,0.803,0.368,1.214,0.538c1.23,0.511,2.509,0.935,3.829,1.265
				c0.44,0.109,0.885,0.21,1.334,0.299c1.797,0.357,3.663,0.543,5.583,0.543l0,0h129.792c8.795,31.377,33.391,55.973,64.768,64.768
				v54.699c0,5.12,3.413,8.533,8.533,8.533h34.133c5.12,0,8.532-3.413,8.532-8.533v-54.699
				c31.377-8.795,55.974-33.391,64.769-64.768h146.859c15.359,0,27.307-11.947,27.307-27.307V118.467V101.4V23.747
				C511,10.093,499.907-1,487.107-1z M255,451.267v42.667h-17.067v-42.667H255z M246.467,434.2
				c-36.247,0-66.322-24.641-74.555-58.213l-0.538-3.228c-0.73-4.378-1.455-8.756-1.651-13.134
				c-0.021-0.741-0.056-1.479-0.056-2.226c0-42.667,34.133-76.801,76.8-76.801c4.684,0,9.258,0.435,13.702,1.223
				c13.906,2.646,26.817,8.847,37.498,18.403c16.213,14.508,25.601,35.841,25.601,57.174c0,0.746-0.035,1.483-0.057,2.226
				c-0.195,4.378-0.921,8.756-1.65,13.134c-0.222,0.664-0.324,1.328-0.33,1.979l-0.209,1.25
				C312.788,409.56,282.714,434.2,246.467,434.2z M340.333,365.933c0-2.56,0-5.973,0-8.532c0-35.613-19.574-66.43-48.606-82.344
				c-16.477-9.326-35.531-13.395-55.5-11.522c-41.813,4.267-75.947,35.84-82.773,76.8c-0.853,8.533-1.707,17.067-0.853,25.6H26.307
				c-5.973,0-10.24-4.267-10.24-10.239v-97.28l55.467-49.493c6.827-6.827,17.067-6.827,24.747-0.853l67.413,53.76
				c2.56,1.707,4.267,1.707,6.827,1.707s4.267-1.707,5.973-3.413l66.56-88.747c0.853-1.707,2.56-1.707,3.413-1.707
				s2.56,0.853,3.413,1.707l66.56,88.747c1.707,1.707,4.268,3.413,6.828,3.413c2.56,0,4.267-0.854,7.68-3.413l63.146-69.973
				c1.707-1.707,5.12-3.413,7.68-3.413c2.561,0,5.974,1.707,7.681,3.413l85.333,85.333v80.213c0,5.973-4.268,10.24-10.24,10.24
				H340.333V365.933z M494.787,253.293L419.693,178.2c-5.12-5.973-12.801-8.533-20.48-8.533s-14.507,3.413-19.627,9.387
				l-56.32,62.293l-59.732-80.213c-4.268-5.12-10.24-8.533-17.067-8.533c-6.827,0-12.8,3.413-17.067,8.533l-60.587,81.92
				l-60.587-47.787c-13.653-11.093-33.28-11.093-46.933,0.853l-45.227,40.058V118.467h478.72v134.826H494.787z M16.067,101.4V23.747
				c0-4.267,3.413-7.68,7.68-7.68h462.507c4.268,0,7.68,3.413,7.68,7.68V101.4H16.067z"/>
			<path fill="#FFFFFF" d="M246.467,306.2c-28.16,0-51.2,23.04-51.2,51.2c0,5.119,3.413,8.532,8.533,8.532
				c5.12,0,8.533-3.413,8.533-8.532c0-18.773,15.36-34.134,34.133-34.134c5.12,0,8.533-3.412,8.533-8.532
				S251.587,306.2,246.467,306.2z"/>
		</g>
	</g>
</g>
</svg>
