<?xml version="1.0" encoding="utf-8"?>
<!-- Generator: Adobe Illustrator 16.0.0, SVG Export Plug-In . SVG Version: 6.00 Build 0)  -->
<!DOCTYPE svg PUBLIC "-//W3C//DTD SVG 1.1//EN" "http://www.w3.org/Graphics/SVG/1.1/DTD/svg11.dtd">
<svg version="1.1" id="Capa_1" xmlns="http://www.w3.org/2000/svg" xmlns:xlink="http://www.w3.org/1999/xlink" x="0px" y="0px"
	 width="512px" height="512px" viewBox="0 0 512 512" enable-background="new 0 0 512 512" xml:space="preserve">
<path fill="#FFFFFF" d="M415.476,126.976l-17.976,0l-9.254,0h-3v-3V115l0.001-18.252c-0.001-9.718-3.786-18.856-10.658-25.73
	c-6.872-6.873-16.01-10.658-25.729-10.658c-20.063,0-36.387,16.323-36.387,36.387v94.892c0,2.167,0.844,4.204,2.375,5.735
	c1.532,1.532,3.57,2.376,5.737,2.376h94.892c20.063-0.001,36.387-16.325,36.387-36.389c-0.001-9.719-3.785-18.856-10.656-25.728
	C434.335,130.763,425.197,126.978,415.476,126.976z M415.479,183.527l-69.105-0.001c-0.045,0.001-0.111,0.002-0.198,0.002
	c-1.29,0-7.968-0.245-12.796-5.072c-4.354-4.355-4.667-10.076-4.679-10.317l-0.003-0.069V168V96.746
	c0-5.379,2.099-10.44,5.91-14.251s8.872-5.911,14.25-5.911c0.001,0,0.001,0,0.002,0c5.386,0,10.449,2.097,14.257,5.906
	c3.808,3.808,5.905,8.871,5.907,14.255l-0.002,38.343c0,2.167,0.844,4.204,2.375,5.735c1.531,1.532,3.569,2.375,5.737,2.376h38.341
	c5.387,0,10.451,2.097,14.259,5.905c3.809,3.809,5.905,8.871,5.905,14.255C435.639,174.48,426.595,183.527,415.479,183.527z"/>
<path fill="#FFFFFF" d="M468.662,110.867l-0.354-0.354c-11.716-11.716-26.52-19.053-42.813-21.219l-2.272-0.302l-0.306-2.272
	c-4.963-36.886-36.801-64.702-74.058-64.703c-19.961,0.001-38.726,7.774-52.84,21.888c-14.115,14.115-21.889,32.88-21.888,52.841
	v101.521v1.243l-0.879,0.879L171.491,302.148l-2.121,2.121l-2.122-2.121l-21.052-21.053c-5.144-5.144-11.995-7.976-19.291-7.977
	c-7.297,0-14.148,2.833-19.292,7.979c-5.144,5.145-7.977,11.995-7.977,19.292c0,7.296,2.833,14.146,7.976,19.29l17.048,17.049
	c1.634,1.634,2.534,3.81,2.534,6.125c0,2.316-0.9,4.492-2.535,6.126c-1.634,1.635-3.81,2.535-6.125,2.535
	c-2.316,0-4.491-0.9-6.125-2.535l-17.048-17.049c-5.143-5.143-11.995-7.976-19.292-7.977c-7.296,0-14.146,2.832-19.291,7.977
	c-5.145,5.145-7.978,11.996-7.978,19.294c0,7.296,2.833,14.146,7.976,19.29l21.053,21.054l2.123,2.123l-2.125,2.121l-0.615,0.614
	c-5.142,5.143-7.974,11.993-7.974,19.291c0,7.296,2.833,14.146,7.976,19.29c5.145,5.145,11.997,7.978,19.293,7.978
	s14.147-2.833,19.29-7.977l196.04-196.038l0.879-0.879h1.242l100.526,0.001c41.222,0,75.188-33.079,75.715-73.739
	C490.46,144.198,482.811,125.203,468.662,110.867z M414.484,221.868H309.355c-2.136,0-4.226,0.866-5.735,2.375L104.326,423.537
	c-2.086,2.087-4.863,3.235-7.819,3.235c-2.956,0-5.733-1.148-7.82-3.235s-3.235-4.863-3.235-7.819c0-2.957,1.149-5.733,3.235-7.819
	l8.472-8.473c1.532-1.532,2.376-3.569,2.376-5.736s-0.844-4.204-2.375-5.736l-28.91-28.91c-2.087-2.086-3.236-4.863-3.236-7.819
	s1.149-5.733,3.236-7.819c2.086-2.087,4.863-3.235,7.819-3.235c2.957,0,5.734,1.149,7.82,3.236l17.047,17.048
	c4.692,4.691,10.942,7.276,17.598,7.276c6.656,0,12.905-2.585,17.598-7.276c9.703-9.703,9.703-25.492,0-35.196l-17.047-17.048
	c-2.087-2.086-3.236-4.863-3.236-7.82c0-2.956,1.149-5.732,3.236-7.818c2.087-2.087,4.864-3.236,7.82-3.236
	c2.957,0,5.733,1.149,7.82,3.236l28.909,28.908c1.533,1.532,3.57,2.377,5.736,2.377s4.204-0.845,5.736-2.377l112.873-112.873
	c1.511-1.51,2.377-3.601,2.377-5.735l-0.002-106.123c0-15.604,6.092-30.289,17.154-41.351
	c11.063-11.062,25.748-17.153,41.352-17.153c32.26,0,58.505,26.245,58.505,58.505c0,2.136,0.866,4.226,2.375,5.736
	c1.532,1.531,3.569,2.375,5.738,2.376c15.628,0,30.315,6.083,41.36,17.129l0.274,0.275c11.08,11.224,17.069,26.097,16.864,41.88
	C473.563,195.973,446.876,221.868,414.484,221.868z"/>
</svg>
